<?xml version="1.0" standalone="no"?>
<!DOCTYPE svg PUBLIC "-//W3C//DTD SVG 20010904//EN"
 "http://www.w3.org/TR/2001/REC-SVG-20010904/DTD/svg10.dtd">
<svg version="1.0" xmlns="http://www.w3.org/2000/svg"
 width="200.000000pt" height="200.000000pt" viewBox="0 0 200.000000 200.000000"
 preserveAspectRatio="xMidYMid meet">
<metadata>
Created by potrace 1.14, written by Peter Selinger 2001-2017
</metadata>
<g transform="translate(0.000000,200.000000) scale(0.100000,-0.100000)"
fill="#000000" stroke="none">
<path d="M970 1373 c-8 -3 -26 -16 -40 -30 -14 -13 -49 -38 -78 -54 -29 -17
-65 -47 -80 -69 -23 -33 -32 -39 -64 -40 -72 0 -102 -88 -45 -132 12 -10 28
-23 35 -28 6 -6 12 -23 12 -38 0 -15 9 -47 20 -71 l20 -44 25 37 c21 31 25 48
25 112 0 73 1 77 34 110 41 41 97 47 139 14 l26 -20 33 20 c39 24 95 26 126 4
37 -26 52 -67 52 -145 0 -61 3 -75 25 -101 l25 -30 16 39 c9 21 19 55 22 76 4
29 12 41 33 53 29 14 45 51 40 89 -4 30 -39 55 -77 55 -19 0 -34 4 -34 9 0 18
-88 97 -129 115 -34 16 -41 24 -41 48 0 33 -13 35 -57 8 -33 -20 -33 -20 -33
0 0 21 -4 22 -30 13z"/>
<path d="M883 1110 c-12 -5 -26 -18 -32 -29 -13 -24 -14 -121 -2 -141 7 -10 0
-25 -24 -52 -52 -57 -57 -105 -18 -164 45 -70 188 -104 290 -70 122 41 165
156 87 237 -25 26 -27 34 -25 106 1 84 -2 93 -37 112 -32 17 -80 -3 -88 -35
-4 -17 -13 -24 -30 -24 -14 0 -24 6 -24 14 0 16 -47 56 -64 55 -6 0 -21 -4
-33 -9z m75 -112 c-2 -15 -11 -24 -25 -26 -19 -3 -23 1 -23 22 0 21 5 26 26
26 21 0 25 -4 22 -22z m142 -4 c0 -21 -4 -25 -22 -22 -15 2 -24 11 -26 26 -3
18 1 22 22 22 21 0 26 -5 26 -26z m-136 -113 c15 -16 15 -19 1 -31 -21 -18
-61 16 -44 37 15 17 23 17 43 -6z m125 6 c17 -21 -23 -55 -44 -37 -14 12 -14
15 1 31 20 23 28 23 43 6z m-175 -92 c63 -19 119 -19 184 0 29 9 57 13 62 10
42 -26 -56 -69 -155 -68 -52 0 -175 26 -175 37 0 15 14 36 24 36 6 0 33 -7 60
-15z"/>
</g>
</svg>
